Coordinates
version=1
nRows=8
nColumns=63
inDegrees=yes

Units are S.I. units (second, meters, Newtons, ...)
If the header above contains a line with 'inDegrees', this indicates whether rotational values are in degrees (yes) or radians (no).

endheader
time	pelvis_tilt	pelvis_list	pelvis_rotation	pelvis_tx	pelvis_ty	pelvis_tz	hip_flexion_r	hip_adduction_r	hip_rotation_r	knee_angle_r	knee_angle_r_beta	ankle_angle_r	subtalar_angle_r	mtp_angle_r	hip_flexion_l	hip_adduction_l	hip_rotation_l	knee_angle_l	knee_angle_l_beta	ankle_angle_l	subtalar_angle_l	mtp_angle_l	L5_S1_Flex_Ext	L5_S1_Lat_Bending	L5_S1_axial_rotation	L4_L5_Flex_Ext	L4_L5_Lat_Bending	L4_L5_axial_rotation	L3_L4_Flex_Ext	L3_L4_Lat_Bending	L3_L4_axial_rotation	L2_L3_Flex_Ext	L2_L3_Lat_Bending	L2_L3_axial_rotation	L1_L2_Flex_Ext	L1_L2_Lat_Bending	L1_L2_axial_rotation	L1_T12_Flex_Ext	L1_T12_Lat_Bending	L1_T12_axial_rotation	Abs_r3	Abs_r2	Abs_r1	Abs_t1	Abs_t2	neck_flexion	neck_bending	neck_rotation	arm_flex_r	arm_add_r	arm_rot_r	elbow_flex_r	pro_sup_r	wrist_flex_r	wrist_dev_r	arm_flex_l	arm_add_l	arm_rot_l	elbow_flex_l	pro_sup_l	wrist_flex_l	wrist_dev_l
0.000000	-2.793518	-4.927483	93.550440	0.170137	0.991032	0.243087	-10.705312	-4.747129	3.026519	0.875579	0.015282	21.360004	-3.958922	0.000000	-9.401511	0.988853	-7.338914	1.780050	0.031068	18.770635	15.489282	0.000000	0.239301	-0.576889	-0.293702	0.444407	-0.767262	-0.312058	0.393148	-1.402648	-0.312058	0.273498	-1.402648	-0.256989	0.222215	-1.176392	-0.238633	0.136737	-0.893601	-0.220276	1.709306	-6.525882	-1.633481	0.000000	0.000000	16.801166	2.118110	-15.076194	62.211298	-9.960014	66.820695	44.287894	88.541695	-1.230189	-19.785971	76.925709	-0.989436	98.769657	25.650439	39.806375	5.857464	11.810106
0.016949	-2.391013	-4.772310	94.761333	0.168826	0.991098	0.243243	-11.098205	-4.023502	1.940085	0.796806	0.013907	20.985263	-3.850594	0.000000	-9.376932	0.377712	-6.810711	1.838642	0.032090	18.789582	15.707478	0.000000	0.230442	-0.537548	-0.356933	0.427954	-0.714938	-0.379241	0.378593	-1.306993	-0.379241	0.263372	-1.306993	-0.312316	0.213989	-1.096167	-0.290008	0.131675	-0.832661	-0.267699	1.646025	-6.080846	-1.985152	0.000000	0.000000	16.241986	1.494721	-15.801247	61.736325	-10.628834	65.323593	44.755919	88.451000	-0.084267	-13.429409	76.454021	-0.254450	100.439771	24.892887	44.292117	4.894760	5.474258
0.033898	-2.082729	-4.656018	95.746700	0.167740	0.991107	0.243341	-11.430214	-3.459086	1.204105	0.725227	0.012658	20.617975	-3.948749	0.000000	-9.352502	-0.094942	-6.361226	1.882304	0.032852	18.854941	15.844830	0.000000	0.222655	-0.508335	-0.401043	0.413493	-0.676085	-0.426108	0.365800	-1.235966	-0.426108	0.254473	-1.235966	-0.350913	0.206758	-1.036597	-0.325848	0.127225	-0.787411	-0.300782	1.590404	-5.750386	-2.230482	0.000000	0.000000	15.833167	0.987477	-16.458556	61.332285	-11.201742	64.038555	45.239434	88.376088	1.432376	-7.981088	76.029216	0.344197	101.704479	24.348304	47.450023	4.473590	0.548262
0.050847	-1.859406	-4.573399	96.523953	0.166861	0.991068	0.243387	-11.707008	-3.039441	0.780660	0.660693	0.011531	20.261916	-4.223013	0.000000	-9.330066	-0.442008	-5.986897	1.912484	0.033379	18.959316	15.910599	0.000000	0.215775	-0.488133	-0.426617	0.400717	-0.649217	-0.453280	0.354497	-1.186847	-0.453280	0.246610	-1.186847	-0.373290	0.200369	-0.995402	-0.346626	0.123294	-0.756119	-0.319963	1.541262	-5.521862	-2.372715	0.000000	0.000000	15.556335	0.584278	-17.053940	60.994453	-11.691594	62.952854	45.732363	88.315949	3.261475	-3.370793	75.642749	0.817419	102.575282	24.000553	49.483937	4.536644	-3.118482
0.067797	-1.711785	-4.519241	97.110503	0.166168	0.990991	0.243389	-11.934256	-2.750127	0.631832	0.603056	0.010525	19.920859	-4.643014	0.000000	-9.311468	-0.676381	-5.684161	1.930626	0.033696	19.095309	15.914045	0.000000	0.209637	-0.475825	-0.434237	0.389317	-0.632848	-0.461377	0.344413	-1.156922	-0.461377	0.239594	-1.156922	-0.379957	0.194669	-0.970303	-0.352817	0.119787	-0.737054	-0.325678	1.497416	-5.382633	-2.415095	0.000000	0.000000	15.393116	0.273029	-17.593221	60.718104	-12.111244	62.053765	46.228632	88.269574	5.344764	0.471692	75.286079	1.176128	103.063680	23.833493	50.597704	5.026613	-5.676573
0.084746	-1.630609	-4.488336	97.523761	0.165641	0.990885	0.243353	-12.117626	-2.576706	0.719703	0.552168	0.009637	19.598579	-5.178380	0.000000	-9.298553	-0.810958	-5.449457	1.938179	0.033828	19.255526	15.864430	0.000000	0.204074	-0.470294	-0.424486	0.378987	-0.625491	-0.451017	0.335274	-1.143473	-0.451017	0.233237	-1.143473	-0.371425	0.189503	-0.959023	-0.344895	0.116608	-0.728485	-0.318365	1.457683	-5.320059	-2.360865	0.000000	0.000000	15.325135	0.041631	-18.082217	60.498514	-12.473548	61.328562	46.722164	88.235955	7.623977	3.616582	74.950664	1.431239	103.181174	23.830986	50.995170	5.886189	-7.276608
0.101695	-1.606617	-4.475472	97.781139	0.165262	0.990761	0.243285	-12.262787	-2.504738	1.006355	0.507880	0.008864	19.298852	-5.798737	0.000000	-9.293163	-0.858635	-5.279220	1.936587	0.033800	19.432570	15.771014	0.000000	0.198922	-0.470421	-0.397948	0.369418	-0.625660	-0.422820	0.326809	-1.143782	-0.422820	0.227348	-1.143782	-0.348205	0.184719	-0.959283	-0.323333	0.113664	-0.728683	-0.298461	1.420881	-5.321500	-2.213269	0.000000	0.000000	15.334017	-0.122012	-18.526747	60.330957	-12.791362	60.764517	47.206885	88.214082	10.040850	6.134095	74.627960	1.593664	102.939264	23.976894	50.880179	7.058064	-8.069188
0.118644	-1.630552	-4.475441	97.900049	0.165010	0.990627	0.243194	-12.375408	-2.519783	1.453869	0.470043	0.008204	19.025451	-6.473712	0.000000	-9.297144	-0.832311	-5.169889	1.927298	0.033638	19.619044	15.643059	0.000000	0.194015	-0.475090	-0.355206	0.360305	-0.631870	-0.377407	0.318747	-1.155134	-0.377407	0.221739	-1.155134	-0.310805	0.180162	-0.968804	-0.288605	0.110860	-0.735915	-0.266405	1.385827	-5.374316	-1.975550	0.000000	0.000000	15.401388	-0.230000	-18.932632	60.210708	-13.077541	60.348906	47.676719	88.202946	12.537117	8.094445	74.309425	1.674318	102.349451	24.255078	50.456576	8.484929	-8.204909
